<?xml version="1.0" standalone="no"?>
<!DOCTYPE svg PUBLIC "-//W3C//DTD SVG 20010904//EN"
 "http://www.w3.org/TR/2001/REC-SVG-20010904/DTD/svg10.dtd">
<svg version="1.0" xmlns="http://www.w3.org/2000/svg"
 width="512.000000pt" height="512.000000pt" viewBox="0 0 512.000000 512.000000"
 preserveAspectRatio="xMidYMid meet">

<g transform="translate(0.000000,512.000000) scale(0.100000,-0.100000)"
fill="#000000" stroke="none">
<path d="M2321 5110 c-868 -84 -1644 -610 -2037 -1382 -139 -273 -221 -536
-266 -853 -20 -140 -17 -504 6 -660 39 -278 121 -541 247 -794 249 -502 647
-900 1150 -1150 815 -406 1779 -350 2539 147 297 194 579 482 771 788 74 116
184 342 234 478 51 138 110 376 131 531 23 157 26 521 6 660 -59 415 -191 769
-410 1099 -92 140 -185 254 -315 385 -399 403 -895 653 -1462 737 -122 18
-466 26 -594 14z m951 -1218 c20 -20 24 -446 4 -476 -14 -22 -23 -23 -192 -30
-274 -10 -274 -10 -274 -276 l0 -170 212 0 c183 0 214 -2 230 -17 16 -15 18
-36 18 -259 0 -207 -2 -245 -16 -258 -13 -14 -48 -16 -229 -16 l-215 0 -2
-570 c-3 -531 -4 -570 -21 -587 -16 -16 -41 -18 -266 -18 -195 0 -251 3 -264
14 -15 12 -17 69 -19 585 l-3 571 -185 3 c-174 2 -186 3 -202 23 -16 19 -18
47 -18 255 0 221 1 235 20 254 19 19 33 20 205 20 l185 0 0 203 c0 168 4 216
20 286 61 254 233 416 495 466 95 18 498 16 517 -3z"/>
</g>
</svg>
